<?xml version="1.0" encoding="UTF-8"?>
<svg id="Layer_1" data-name="Layer 1" xmlns="http://www.w3.org/2000/svg" viewBox="0 0 22.09 22.09">
  <defs>
    <style>
      .cls-1 {
        fill: #fff;
      }
    </style>
  </defs>
  <path class="cls-1" d="M16.89,3.94c-.72,0-1.29,.58-1.29,1.29s.58,1.29,1.29,1.29,1.29-.58,1.29-1.29-.58-1.29-1.29-1.29Z"/>
  <path class="cls-1" d="M11.13,5.6c-3,0-5.44,2.44-5.44,5.44s2.44,5.44,5.44,5.44,5.44-2.44,5.44-5.44-2.44-5.44-5.44-5.44Zm0,8.92c-1.92,0-3.48-1.56-3.48-3.48s1.56-3.48,3.48-3.48,3.48,1.56,3.48,3.48-1.56,3.48-3.48,3.48Z"/>
  <path class="cls-1" d="M15.45,22.09H6.63c-3.66,0-6.63-2.98-6.63-6.63V6.63C0,2.98,2.98,0,6.63,0H15.45c3.66,0,6.63,2.98,6.63,6.63V15.45c0,3.66-2.98,6.63-6.63,6.63ZM6.63,2.08c-2.51,0-4.56,2.04-4.56,4.56V15.45c0,2.51,2.04,4.56,4.56,4.56H15.45c2.51,0,4.56-2.04,4.56-4.56V6.63c0-2.51-2.04-4.56-4.56-4.56H6.63Z"/>
</svg>