<?xml version="1.0" encoding="UTF-8"?>
<svg id="Layer_1" data-name="Layer 1" xmlns="http://www.w3.org/2000/svg" viewBox="0 0 21.29 17.53">
  <defs>
    <style>
      .cls-1 {
        fill: #fff;
      }
    </style>
  </defs>
  <path class="cls-1" d="M21.21,2.1c-.68,.31-1.42,.49-2.15,.61,.35-.06,.85-.69,1.06-.94,.31-.39,.57-.83,.71-1.3,.02-.04,.03-.08,0-.11-.05-.02-.08,0-.11,0-.81,.44-1.66,.75-2.55,.98-.07,.02-.13,0-.18-.05-.07-.08-.14-.16-.22-.23-.38-.32-.78-.57-1.24-.76-.6-.24-1.25-.35-1.9-.31-.63,.04-1.24,.22-1.8,.51-.56,.29-1.06,.7-1.45,1.19-.41,.51-.71,1.1-.87,1.74-.15,.61-.14,1.22-.05,1.83,.01,.1,0,.12-.09,.1C6.86,4.85,3.96,3.6,1.6,.91c-.1-.12-.16-.12-.24,0-1.03,1.55-.53,4.03,.76,5.26,.17,.16,.35,.33,.54,.47-.07,.01-.93-.08-1.69-.47-.1-.06-.15-.03-.16,.09,0,.17,0,.32,.03,.5,.2,1.57,1.28,3.02,2.77,3.59,.18,.07,.37,.14,.56,.17-.34,.07-.69,.13-1.66,.05-.12-.02-.17,.04-.12,.15,.73,1.99,2.31,2.58,3.49,2.92,.16,.03,.32,.03,.47,.06,0,.01-.02,.01-.03,.03-.39,.6-1.75,1.04-2.38,1.26-1.15,.4-2.4,.58-3.62,.46-.19-.03-.24-.03-.29,0-.05,.03,0,.08,.06,.13,.25,.16,.5,.31,.75,.45,.77,.41,1.58,.74,2.42,.97,4.35,1.2,9.24,.32,12.51-2.92,2.56-2.55,3.46-6.06,3.46-9.57,0-.14,.16-.21,.26-.29,.67-.5,1.2-1.1,1.7-1.77,.11-.15,.11-.28,.11-.34v-.02c0-.06,0-.04-.09,0Z"/>
</svg>